<?xml version="1.0" encoding="UTF-8" standalone="no"?>
<svg xmlns:xlink="http://www.w3.org/1999/xlink" height="19.85px" width="74.5px" xmlns="http://www.w3.org/2000/svg">
  <g transform="matrix(1.0, 0.0, 0.0, 1.0, 40.05, 8.0)">
    <path d="M-40.05 10.9 L-39.9 11.15 Q-39.25 12.0 -35.05 11.8 L-33.05 11.65 Q-29.75 11.3 -27.55 10.4 -26.0 9.8 -24.5 9.2 -21.35 8.05 -19.05 7.55 L-14.95 6.9 -12.2 6.6 Q-9.65 6.35 -5.05 4.9 L-0.15 3.25 1.7 2.6 Q7.5 0.55 11.25 -0.55 L14.05 -1.3 14.7 -1.45 Q17.25 -2.05 19.75 -2.65 L20.65 -2.85 Q22.4 -3.25 24.15 -3.65 L29.15 -4.6 28.75 -4.6 21.25 -3.6 16.85 -2.8 16.65 -2.8 5.45 -0.45 3.25 0.15 Q1.25 0.75 -1.3 1.7 -5.3 3.2 -9.3 4.1 L-9.9 4.2 Q-14.3 4.75 -18.65 5.25 L-19.45 5.3 -24.95 5.8 -27.65 6.3 Q-32.55 7.6 -40.05 10.9" fill="url(#gradient0)" fill-rule="evenodd" stroke="none">
      <animate attributeName="d" dur="2s" repeatCount="indefinite" values="M-40.05 10.9 L-39.9 11.15 Q-39.25 12.0 -35.05 11.8 L-33.05 11.65 Q-29.75 11.3 -27.55 10.4 -26.0 9.8 -24.5 9.2 -21.35 8.05 -19.05 7.55 L-14.95 6.9 -12.2 6.6 Q-9.65 6.35 -5.05 4.9 L-0.15 3.25 1.7 2.6 Q7.5 0.55 11.25 -0.55 L14.05 -1.3 14.7 -1.45 Q17.25 -2.05 19.75 -2.65 L20.65 -2.85 Q22.4 -3.25 24.15 -3.65 L29.15 -4.6 28.75 -4.6 21.25 -3.6 16.85 -2.8 16.65 -2.8 5.45 -0.45 3.25 0.15 Q1.25 0.75 -1.3 1.7 -5.3 3.2 -9.3 4.1 L-9.9 4.2 Q-14.3 4.75 -18.65 5.25 L-19.45 5.3 -24.95 5.8 -27.65 6.3 Q-32.55 7.6 -40.05 10.9;M-34.0 7.9 L-34.0 7.9 Q-33.85 8.9 -29.35 9.2 L-27.4 9.25 Q-24.45 9.1 -21.5 9.0 -19.5 8.75 -18.3 8.2 -15.8 6.9 -13.3 5.65 L-9.6 3.75 -7.05 2.45 Q-2.2 0.15 0.35 -0.5 L5.7 -1.35 7.25 -1.45 Q12.35 -1.8 17.15 -2.7 L19.8 -3.5 20.45 -3.7 Q23.35 -4.55 25.55 -4.65 L26.55 -4.75 Q28.75 -4.9 30.1 -5.4 L34.15 -7.8 34.45 -8.0 26.7 -6.25 22.05 -5.5 21.8 -5.45 11.55 -4.4 9.2 -4.2 Q6.65 -3.9 4.15 -3.6 -0.85 -2.9 -3.7 -1.7 L-4.25 -1.5 Q-9.35 0.85 -12.55 1.85 L-13.3 2.05 -18.65 3.5 -21.1 4.2 Q-27.55 6.05 -34.0 7.9"/>
    </path>
    <path d="M-40.05 10.9 Q-32.55 7.6 -27.65 6.3 L-24.95 5.8 -19.45 5.3 -18.65 5.25 Q-14.3 4.75 -9.9 4.2 L-9.3 4.1 Q-5.3 3.2 -1.3 1.7 1.25 0.75 3.25 0.15 L5.45 -0.45 16.65 -2.8 16.85 -2.8 21.25 -3.6 28.75 -4.6 29.15 -4.6 24.15 -3.65 Q22.4 -3.25 20.65 -2.85 L19.75 -2.65 Q17.25 -2.05 14.7 -1.45 L14.05 -1.3 11.25 -0.55 Q7.5 0.55 1.7 2.6 L-0.15 3.25 -5.05 4.9 Q-9.65 6.35 -12.2 6.6 L-14.95 6.9 -19.05 7.55 Q-21.35 8.05 -24.5 9.2 -26.0 9.8 -27.55 10.4 -29.75 11.3 -33.05 11.65 L-35.05 11.8 Q-39.25 12.0 -39.9 11.15 L-40.05 10.9" fill="none" stroke="#000000" stroke-linecap="round" stroke-linejoin="round" stroke-opacity="0.0" stroke-width="1.0">
      <animate attributeName="stroke" dur="2s" repeatCount="indefinite" values="#000000;#000001"/>
      <animate attributeName="stroke-width" dur="2s" repeatCount="indefinite" values="0.0;0.0"/>
      <animate attributeName="fill-opacity" dur="2s" repeatCount="indefinite" values="0.0;0.0"/>
      <animate attributeName="d" dur="2s" repeatCount="indefinite" values="M-40.05 10.9 Q-32.55 7.6 -27.65 6.3 L-24.95 5.8 -19.45 5.3 -18.65 5.25 Q-14.3 4.75 -9.9 4.2 L-9.3 4.1 Q-5.3 3.2 -1.3 1.7 1.25 0.75 3.25 0.15 L5.45 -0.45 16.65 -2.8 16.85 -2.8 21.25 -3.6 28.75 -4.6 29.15 -4.6 24.15 -3.65 Q22.4 -3.25 20.65 -2.85 L19.75 -2.65 Q17.25 -2.05 14.7 -1.45 L14.05 -1.3 11.25 -0.55 Q7.5 0.55 1.7 2.6 L-0.15 3.25 -5.05 4.9 Q-9.65 6.35 -12.2 6.6 L-14.95 6.9 -19.05 7.55 Q-21.35 8.05 -24.5 9.2 -26.0 9.8 -27.55 10.4 -29.75 11.3 -33.05 11.65 L-35.05 11.8 Q-39.25 12.0 -39.9 11.15 L-40.05 10.9;M-34.0 7.9 Q-27.55 6.05 -21.1 4.2 L-18.65 3.5 -13.3 2.05 -12.55 1.85 Q-9.35 0.85 -4.25 -1.5 L-3.7 -1.7 Q-0.85 -2.9 4.15 -3.6 6.65 -3.9 9.2 -4.2 L11.55 -4.4 21.8 -5.45 22.05 -5.5 26.7 -6.25 34.45 -8.0 34.15 -7.8 30.1 -5.4 Q28.75 -4.9 26.55 -4.75 L25.55 -4.65 Q23.35 -4.55 20.45 -3.7 L19.8 -3.5 17.15 -2.7 Q12.35 -1.8 7.25 -1.45 L5.7 -1.35 0.35 -0.5 Q-2.2 0.15 -7.05 2.45 L-9.6 3.75 -13.3 5.65 Q-15.8 6.9 -18.3 8.2 -19.5 8.75 -21.5 9.0 -24.45 9.1 -27.4 9.25 L-29.35 9.2 Q-33.85 8.9 -34.0 7.9 L-34.0 7.9"/>
    </path>
  </g>
  <defs>
    <linearGradient gradientTransform="matrix(-0.045, 0.0093, 0.0093, 0.045, -1.4, 2.95)" gradientUnits="userSpaceOnUse" id="gradient0" spreadMethod="pad" x1="-819.2" x2="819.2">
      <animateTransform additive="replace" attributeName="gradientTransform" dur="2s" from="1" repeatCount="indefinite" to="1" type="scale"/>
      <animateTransform additive="sum" attributeName="gradientTransform" dur="2s" from="-1.4 2.95" repeatCount="indefinite" to="4.65 -0.05" type="translate"/>
      <animateTransform additive="sum" attributeName="gradientTransform" dur="2s" from="168.3357" repeatCount="indefinite" to="168.3357" type="rotate"/>
      <animateTransform additive="sum" attributeName="gradientTransform" dur="2s" from="0.046 -0.046" repeatCount="indefinite" to="0.046 -0.046" type="scale"/>
      <animateTransform additive="sum" attributeName="gradientTransform" dur="2s" from="0.0" repeatCount="indefinite" to="0.0" type="skewX"/>
      <stop offset="0.0" stop-color="#ffffff" stop-opacity="0.08627451">
        <animate attributeName="offset" dur="2s" repeatCount="indefinite" values="0.0;0.0"/>
        <animate attributeName="stop-color" dur="2s" repeatCount="indefinite" values="#ffffff;#ffffff"/>
        <animate attributeName="stop-opacity" dur="2s" repeatCount="indefinite" values="0.08627451;0.08627451"/>
      </stop>
      <stop offset="1.0" stop-color="#c9e0d6" stop-opacity="0.60784316">
        <animate attributeName="offset" dur="2s" repeatCount="indefinite" values="1.0;1.0"/>
        <animate attributeName="stop-color" dur="2s" repeatCount="indefinite" values="#c9e0d6;#c9e0d7"/>
        <animate attributeName="stop-opacity" dur="2s" repeatCount="indefinite" values="0.60784316;0.60784316"/>
      </stop>
    </linearGradient>
  </defs>
</svg>
