<?xml version="1.0" encoding="UTF-8" standalone="no"?>
<svg xmlns:xlink="http://www.w3.org/1999/xlink" height="17.45px" width="69.05px" xmlns="http://www.w3.org/2000/svg">
  <g transform="matrix(1.0, 0.0, 0.0, 1.0, 34.0, 8.2)">
    <path d="M-34.0 7.9 L-34.0 7.9 Q-33.8 8.95 -28.8 9.2 L-27.4 9.25 Q-24.15 9.05 -20.95 8.9 -19.35 8.65 -18.3 8.2 L-10.2 4.05 -9.6 3.75 Q-2.85 0.3 0.35 -0.5 L1.3 -0.7 7.25 -1.45 11.75 -1.85 17.15 -2.7 20.45 -3.7 24.7 -4.6 25.55 -4.65 Q28.45 -4.8 30.1 -5.4 31.65 -6.0 34.45 -8.0 L34.05 -7.9 30.3 -6.95 26.7 -6.25 21.8 -5.45 19.0 -5.1 Q15.15 -4.75 11.3 -4.4 L9.2 -4.2 Q5.85 -3.8 2.55 -3.4 -1.8 -2.65 -4.25 -1.5 L-8.85 0.55 -12.55 1.85 -18.0 3.3 -18.65 3.5 Q-26.35 5.7 -34.0 7.9" fill="url(#gradient0)" fill-rule="evenodd" stroke="none">
      <animate attributeName="d" dur="2s" repeatCount="indefinite" values="M-34.0 7.9 L-34.0 7.9 Q-33.8 8.95 -28.8 9.2 L-27.4 9.25 Q-24.15 9.05 -20.95 8.9 -19.35 8.65 -18.3 8.2 L-10.2 4.05 -9.6 3.75 Q-2.85 0.3 0.35 -0.5 L1.3 -0.7 7.25 -1.45 11.75 -1.85 17.15 -2.7 20.45 -3.7 24.7 -4.6 25.55 -4.65 Q28.45 -4.8 30.1 -5.4 31.65 -6.0 34.45 -8.0 L34.05 -7.9 30.3 -6.95 26.7 -6.25 21.8 -5.45 19.0 -5.1 Q15.15 -4.75 11.3 -4.4 L9.2 -4.2 Q5.85 -3.8 2.55 -3.4 -1.8 -2.65 -4.25 -1.5 L-8.85 0.55 -12.55 1.85 -18.0 3.3 -18.65 3.5 Q-26.35 5.7 -34.0 7.9;M-34.0 7.9 L-34.0 8.0 Q-33.6 9.1 -28.8 9.15 L-27.3 9.15 Q-23.3 9.0 -21.05 8.0 -19.8 7.55 -18.6 7.15 L-10.15 5.05 -9.2 4.85 Q-4.05 3.65 1.1 2.5 L2.0 2.3 7.25 0.5 11.45 -1.15 16.7 -3.1 20.1 -4.2 24.35 -5.35 25.1 -5.55 Q27.3 -6.1 29.5 -6.65 32.05 -7.4 34.55 -8.1 L35.05 -8.2 31.3 -7.7 27.8 -7.25 22.95 -6.6 19.4 -6.0 Q16.65 -5.35 12.15 -3.15 L10.05 -2.2 Q6.7 -0.7 3.65 0.0 0.15 0.5 -3.35 0.95 L-8.4 1.3 -12.45 1.6 -18.45 2.4 -19.0 2.55 Q-23.95 3.95 -34.0 7.9"/>
    </path>
    <path d="M-34.0 7.9 Q-26.35 5.7 -18.65 3.5 L-18.0 3.3 -12.55 1.85 -8.85 0.55 -4.25 -1.5 Q-1.8 -2.65 2.55 -3.4 5.85 -3.8 9.2 -4.2 L11.3 -4.4 Q15.15 -4.75 19.0 -5.1 L21.8 -5.45 26.7 -6.25 30.3 -6.95 34.05 -7.9 34.45 -8.0 Q31.65 -6.0 30.1 -5.4 28.45 -4.8 25.55 -4.65 L24.7 -4.6 20.45 -3.7 17.15 -2.7 11.75 -1.85 7.25 -1.45 1.3 -0.7 0.35 -0.5 Q-2.85 0.3 -9.6 3.75 L-10.2 4.05 -18.3 8.2 Q-19.35 8.65 -20.95 8.9 -24.15 9.05 -27.4 9.25 L-28.8 9.2 Q-33.8 8.95 -34.0 7.9 L-34.0 7.9" fill="none" stroke="#000000" stroke-linecap="round" stroke-linejoin="round" stroke-opacity="0.0" stroke-width="1.0">
      <animate attributeName="stroke" dur="2s" repeatCount="indefinite" values="#000000;#000001"/>
      <animate attributeName="stroke-width" dur="2s" repeatCount="indefinite" values="0.0;0.0"/>
      <animate attributeName="fill-opacity" dur="2s" repeatCount="indefinite" values="0.0;0.0"/>
      <animate attributeName="d" dur="2s" repeatCount="indefinite" values="M-34.0 7.9 Q-26.35 5.7 -18.65 3.5 L-18.0 3.3 -12.55 1.85 -8.85 0.55 -4.25 -1.5 Q-1.8 -2.65 2.55 -3.4 5.85 -3.8 9.2 -4.2 L11.3 -4.4 Q15.15 -4.75 19.0 -5.1 L21.8 -5.45 26.7 -6.25 30.3 -6.95 34.05 -7.9 34.45 -8.0 Q31.65 -6.0 30.1 -5.4 28.45 -4.8 25.55 -4.65 L24.7 -4.6 20.45 -3.7 17.15 -2.7 11.75 -1.85 7.25 -1.45 1.3 -0.7 0.35 -0.5 Q-2.85 0.3 -9.6 3.75 L-10.2 4.05 -18.3 8.2 Q-19.35 8.65 -20.95 8.9 -24.15 9.05 -27.4 9.25 L-28.8 9.2 Q-33.8 8.95 -34.0 7.9 L-34.0 7.9;M-34.0 7.9 Q-23.95 3.95 -19.0 2.55 L-18.45 2.4 -12.45 1.6 -8.4 1.3 -3.35 0.95 Q0.15 0.5 3.65 0.0 6.7 -0.7 10.05 -2.2 L12.15 -3.15 Q16.65 -5.35 19.4 -6.0 L22.95 -6.6 27.8 -7.25 31.3 -7.7 35.05 -8.2 34.55 -8.1 Q32.05 -7.4 29.5 -6.65 27.3 -6.1 25.1 -5.55 L24.35 -5.35 20.1 -4.2 16.7 -3.1 11.45 -1.15 7.25 0.5 2.0 2.3 1.1 2.5 Q-4.05 3.65 -9.2 4.85 L-10.15 5.05 -18.6 7.15 Q-19.8 7.55 -21.05 8.0 -23.3 9.0 -27.3 9.15 L-28.8 9.15 Q-33.6 9.1 -34.0 8.0 L-34.0 7.9"/>
    </path>
  </g>
  <defs>
    <linearGradient gradientTransform="matrix(-0.045, 0.0093, 0.0093, 0.045, 4.65, -0.05)" gradientUnits="userSpaceOnUse" id="gradient0" spreadMethod="pad" x1="-819.2" x2="819.2">
      <animateTransform additive="replace" attributeName="gradientTransform" dur="2s" from="1" repeatCount="indefinite" to="1" type="scale"/>
      <animateTransform additive="sum" attributeName="gradientTransform" dur="2s" from="4.65 -0.05" repeatCount="indefinite" to="4.65 -0.05" type="translate"/>
      <animateTransform additive="sum" attributeName="gradientTransform" dur="2s" from="168.3357" repeatCount="indefinite" to="168.3357" type="rotate"/>
      <animateTransform additive="sum" attributeName="gradientTransform" dur="2s" from="0.046 -0.046" repeatCount="indefinite" to="0.046 -0.046" type="scale"/>
      <animateTransform additive="sum" attributeName="gradientTransform" dur="2s" from="0.0" repeatCount="indefinite" to="0.0" type="skewX"/>
      <stop offset="0.0" stop-color="#ffffff" stop-opacity="0.08627451">
        <animate attributeName="offset" dur="2s" repeatCount="indefinite" values="0.0;0.0"/>
        <animate attributeName="stop-color" dur="2s" repeatCount="indefinite" values="#ffffff;#ffffff"/>
        <animate attributeName="stop-opacity" dur="2s" repeatCount="indefinite" values="0.08627451;0.08627451"/>
      </stop>
      <stop offset="1.0" stop-color="#c9e0d6" stop-opacity="0.60784316">
        <animate attributeName="offset" dur="2s" repeatCount="indefinite" values="1.0;1.0"/>
        <animate attributeName="stop-color" dur="2s" repeatCount="indefinite" values="#c9e0d6;#c9e0d7"/>
        <animate attributeName="stop-opacity" dur="2s" repeatCount="indefinite" values="0.60784316;0.60784316"/>
      </stop>
    </linearGradient>
  </defs>
</svg>
