<?xml version="1.0" encoding="UTF-8" standalone="no"?>
<svg xmlns:xlink="http://www.w3.org/1999/xlink" height="17.35px" width="69.05px" xmlns="http://www.w3.org/2000/svg">
  <g transform="matrix(1.0, 0.0, 0.0, 1.0, 14.0, 4.6)">
    <path d="M-14.0 11.3 L-14.0 11.3 Q-13.8 12.35 -8.8 12.6 L-7.4 12.65 Q-4.1 12.45 -0.85 12.3 0.7 12.05 1.7 11.6 L9.65 7.35 11.1 6.6 Q17.65 3.05 20.9 2.05 L21.7 1.8 31.1 0.75 31.3 0.75 Q38.9 0.25 44.35 -1.0 L44.35 -1.0 Q45.65 -1.3 49.0 -2.65 L54.45 -4.6 54.35 -4.6 50.6 -3.6 46.7 -2.85 41.8 -2.05 39.0 -1.7 Q36.35 -1.5 32.2 -1.65 L31.0 -1.65 Q26.6 -1.4 22.25 -1.15 L21.35 -0.95 Q17.35 -0.05 11.15 2.7 L10.35 3.1 Q4.3 5.9 2.05 6.65 L1.35 6.9 Q-6.35 9.1 -14.0 11.3" fill="url(#gradient0)" fill-rule="evenodd" stroke="none">
      <animate attributeName="d" dur="2s" repeatCount="indefinite" values="M-14.0 11.3 L-14.0 11.3 Q-13.8 12.35 -8.8 12.6 L-7.4 12.65 Q-4.1 12.45 -0.85 12.3 0.7 12.05 1.7 11.6 L9.65 7.35 11.1 6.6 Q17.65 3.05 20.9 2.05 L21.7 1.8 31.1 0.75 31.3 0.75 Q38.9 0.25 44.35 -1.0 L44.35 -1.0 Q45.65 -1.3 49.0 -2.65 L54.45 -4.6 54.35 -4.6 50.6 -3.6 46.7 -2.85 41.8 -2.05 39.0 -1.7 Q36.35 -1.5 32.2 -1.65 L31.0 -1.65 Q26.6 -1.4 22.25 -1.15 L21.35 -0.95 Q17.35 -0.05 11.15 2.7 L10.35 3.1 Q4.3 5.9 2.05 6.65 L1.35 6.9 Q-6.35 9.1 -14.0 11.3;M-14.0 11.5 L-14.0 11.6 Q-13.6 12.7 -8.8 12.75 L-7.3 12.75 Q-3.3 12.6 -1.05 11.6 0.15 11.15 1.35 10.75 L9.85 8.65 11.4 8.3 Q16.7 7.1 22.0 5.9 L22.65 5.7 31.45 2.45 31.75 2.35 Q38.85 -0.45 44.35 -1.75 L44.35 -1.75 Q46.85 -2.4 49.3 -3.0 L54.85 -4.5 55.05 -4.6 51.3 -4.1 47.45 -3.65 42.6 -3.0 39.4 -2.4 Q36.9 -1.8 33.05 0.05 L32.15 0.45 Q27.65 2.7 23.65 3.6 L22.8 3.8 Q17.2 4.35 11.6 4.9 L10.65 5.0 Q6.1 5.5 1.55 6.0 L1.0 6.15 Q-3.95 7.55 -14.0 11.5"/>
    </path>
    <path d="M-14.0 11.3 Q-6.35 9.1 1.35 6.9 L2.05 6.65 Q4.3 5.9 10.35 3.1 L11.15 2.7 Q17.35 -0.05 21.35 -0.95 L22.25 -1.15 Q26.6 -1.4 31.0 -1.65 L32.2 -1.65 Q36.35 -1.5 39.0 -1.7 L41.8 -2.05 46.7 -2.85 50.6 -3.6 54.35 -4.6 54.45 -4.6 49.0 -2.65 Q45.65 -1.3 44.35 -1.0 L44.35 -1.0 Q38.9 0.25 31.3 0.75 L31.1 0.75 21.7 1.8 20.9 2.05 Q17.65 3.05 11.1 6.6 L9.65 7.35 1.7 11.6 Q0.7 12.05 -0.85 12.3 -4.1 12.45 -7.4 12.65 L-8.8 12.6 Q-13.8 12.35 -14.0 11.3 L-14.0 11.3" fill="none" stroke="#000000" stroke-linecap="round" stroke-linejoin="round" stroke-opacity="0.0" stroke-width="1.0">
      <animate attributeName="stroke" dur="2s" repeatCount="indefinite" values="#000000;#000001"/>
      <animate attributeName="stroke-width" dur="2s" repeatCount="indefinite" values="0.0;0.0"/>
      <animate attributeName="fill-opacity" dur="2s" repeatCount="indefinite" values="0.0;0.0"/>
      <animate attributeName="d" dur="2s" repeatCount="indefinite" values="M-14.0 11.3 Q-6.35 9.1 1.35 6.9 L2.05 6.65 Q4.3 5.9 10.35 3.1 L11.15 2.7 Q17.35 -0.05 21.35 -0.95 L22.25 -1.15 Q26.6 -1.4 31.0 -1.65 L32.2 -1.65 Q36.35 -1.5 39.0 -1.7 L41.8 -2.05 46.7 -2.85 50.6 -3.6 54.35 -4.6 54.45 -4.6 49.0 -2.65 Q45.65 -1.3 44.35 -1.0 L44.35 -1.0 Q38.9 0.25 31.3 0.75 L31.1 0.75 21.7 1.8 20.9 2.05 Q17.65 3.05 11.1 6.6 L9.65 7.35 1.7 11.6 Q0.7 12.05 -0.85 12.3 -4.1 12.45 -7.4 12.65 L-8.8 12.6 Q-13.8 12.35 -14.0 11.3 L-14.0 11.3;M-14.0 11.5 Q-3.95 7.55 1.0 6.15 L1.55 6.0 Q6.1 5.5 10.65 5.0 L11.6 4.9 Q17.2 4.35 22.8 3.8 L23.65 3.6 Q27.65 2.7 32.15 0.45 L33.05 0.05 Q36.9 -1.8 39.4 -2.4 L42.6 -3.0 47.45 -3.65 51.3 -4.1 55.05 -4.6 54.85 -4.5 49.3 -3.0 Q46.85 -2.4 44.35 -1.75 L44.35 -1.75 Q38.85 -0.45 31.75 2.35 L31.45 2.45 22.65 5.7 22.0 5.9 Q16.7 7.1 11.4 8.3 L9.85 8.65 1.35 10.75 Q0.15 11.15 -1.05 11.6 -3.3 12.6 -7.3 12.75 L-8.8 12.75 Q-13.6 12.7 -14.0 11.6 L-14.0 11.5"/>
    </path>
  </g>
  <defs>
    <linearGradient gradientTransform="matrix(-0.045, 0.0093, 0.0093, 0.045, 24.65, 3.35)" gradientUnits="userSpaceOnUse" id="gradient0" spreadMethod="pad" x1="-819.2" x2="819.2">
      <animateTransform additive="replace" attributeName="gradientTransform" dur="2s" from="1" repeatCount="indefinite" to="1" type="scale"/>
      <animateTransform additive="sum" attributeName="gradientTransform" dur="2s" from="24.65 3.35" repeatCount="indefinite" to="24.65 3.55" type="translate"/>
      <animateTransform additive="sum" attributeName="gradientTransform" dur="2s" from="168.3357" repeatCount="indefinite" to="168.3357" type="rotate"/>
      <animateTransform additive="sum" attributeName="gradientTransform" dur="2s" from="0.046 -0.046" repeatCount="indefinite" to="0.046 -0.046" type="scale"/>
      <animateTransform additive="sum" attributeName="gradientTransform" dur="2s" from="0.0" repeatCount="indefinite" to="0.0" type="skewX"/>
      <stop offset="0.0" stop-color="#ffffff" stop-opacity="0.08627451">
        <animate attributeName="offset" dur="2s" repeatCount="indefinite" values="0.0;0.0"/>
        <animate attributeName="stop-color" dur="2s" repeatCount="indefinite" values="#ffffff;#ffffff"/>
        <animate attributeName="stop-opacity" dur="2s" repeatCount="indefinite" values="0.08627451;0.08627451"/>
      </stop>
      <stop offset="1.0" stop-color="#c9e0d6" stop-opacity="0.60784316">
        <animate attributeName="offset" dur="2s" repeatCount="indefinite" values="1.0;1.0"/>
        <animate attributeName="stop-color" dur="2s" repeatCount="indefinite" values="#c9e0d6;#c9e0d7"/>
        <animate attributeName="stop-opacity" dur="2s" repeatCount="indefinite" values="0.60784316;0.60784316"/>
      </stop>
    </linearGradient>
  </defs>
</svg>
