<?xml version="1.0" encoding="UTF-8" standalone="no"?>
<svg xmlns:xlink="http://www.w3.org/1999/xlink" height="12.1px" width="63.7px" xmlns="http://www.w3.org/2000/svg">
  <g transform="matrix(1.0, 0.0, 0.0, 1.0, 0.05, -33.9)">
    <path d="M0.55 44.7 Q3.0 46.05 4.2 46.0 L6.3 45.8 7.2 45.75 8.1 45.8 9.05 45.95 10.0 45.95 10.65 45.5 11.25 44.95 11.85 44.9 12.2 44.95 Q12.65 45.05 13.15 44.6 L13.75 43.75 14.25 42.9 14.35 43.4 15.2 43.35 15.65 43.25 16.05 43.25 16.15 42.8 17.2 42.4 17.4 42.35 Q17.9 42.2 18.25 42.5 L18.7 43.55 18.75 43.7 Q18.95 44.2 19.5 44.3 L20.4 44.1 20.5 44.1 21.55 43.75 22.15 43.15 22.25 43.05 Q22.7 42.65 23.1 42.3 L23.1 42.4 23.35 43.25 24.15 43.25 Q24.7 43.05 25.25 42.9 L25.4 42.8 25.8 42.35 25.8 41.85 25.8 41.45 27.0 40.9 28.15 40.55 28.3 40.6 Q28.3 41.3 28.7 41.5 L29.75 41.65 29.75 41.35 Q29.9 40.05 30.85 40.25 L30.9 40.65 Q31.0 41.15 31.05 41.65 L30.9 42.15 30.8 42.7 Q31.0 43.0 31.9 43.25 L32.0 43.25 33.4 43.45 33.75 43.45 Q34.25 43.2 34.7 43.0 L34.7 43.0 Q35.05 42.6 35.2 41.7 L35.2 41.7 Q35.1 41.05 35.05 40.45 L34.65 39.45 34.6 39.2 Q35.0 39.1 36.15 39.7 L36.45 39.9 Q37.35 40.45 37.45 39.15 L37.9 39.1 Q38.95 39.1 38.9 39.9 39.25 39.95 39.6 40.0 40.1 40.05 40.6 40.1 L40.6 40.15 40.5 40.95 40.35 41.3 40.35 41.8 41.55 42.0 Q42.2 41.95 42.85 41.95 43.55 41.75 43.7 41.2 L43.75 40.9 44.5 41.55 44.8 41.55 Q45.55 41.4 45.5 40.55 L45.2 40.05 45.1 39.95 Q44.7 39.6 44.9 39.15 45.1 38.7 45.85 38.7 L46.15 38.7 46.15 39.4 47.35 39.45 47.95 39.1 48.25 38.8 48.4 38.45 48.75 38.05 Q49.05 37.95 49.95 38.4 L50.65 38.75 50.8 38.85 51.75 38.7 52.9 38.35 54.05 38.4 54.15 38.4 54.85 39.05 55.35 39.7 55.45 39.8 Q55.9 40.0 56.3 40.15 L57.85 39.9 Q58.25 39.75 58.7 38.75 L59.35 37.65 59.45 37.5 Q60.4 36.9 62.15 36.7 62.5 36.2 61.9 36.0 L59.9 35.8 Q59.6 35.8 59.1 36.15 58.65 36.5 58.45 36.5 58.2 36.5 57.8 36.2 L57.25 35.75 56.45 35.5 55.7 35.25 55.4 35.25 53.9 35.25 52.05 35.3 50.8 35.05 49.95 34.8 47.75 34.25 44.6 33.95 40.9 34.1 37.85 34.85 Q36.75 35.5 36.25 35.55 L35.45 35.35 34.65 35.15 30.75 34.95 Q29.4 35.05 28.5 35.45 27.9 35.7 27.05 36.3 L25.65 37.25 25.05 37.55 24.25 37.8 22.7 37.9 21.05 38.25 20.0 38.65 17.3 39.55 Q15.7 39.7 14.15 39.8 L14.05 39.8 Q12.3 40.15 11.35 41.15 L10.55 42.3 9.5 43.3 8.1 43.6 7.9 43.6 6.7 43.75 3.9 44.8 2.25 44.85 0.55 44.7" fill="#ffffff" fill-rule="evenodd" stroke="none">
      <animate attributeName="fill" dur="2s" repeatCount="indefinite" values="#ffffff;#ffffff"/>
      <animate attributeName="fill-opacity" dur="2s" repeatCount="indefinite" values="1.0;1.0"/>
      <animate attributeName="d" dur="2s" repeatCount="indefinite" values="M0.55 44.7 Q3.0 46.05 4.2 46.0 L6.3 45.8 7.2 45.75 8.1 45.8 9.05 45.95 10.0 45.95 10.65 45.5 11.25 44.95 11.85 44.9 12.2 44.95 Q12.65 45.05 13.15 44.6 L13.75 43.75 14.25 42.9 14.35 43.4 15.2 43.35 15.65 43.25 16.05 43.25 16.15 42.8 17.2 42.4 17.4 42.35 Q17.9 42.2 18.25 42.5 L18.7 43.55 18.75 43.7 Q18.95 44.2 19.5 44.3 L20.4 44.1 20.5 44.1 21.55 43.75 22.15 43.15 22.25 43.05 Q22.7 42.65 23.1 42.3 L23.1 42.4 23.35 43.25 24.15 43.25 Q24.7 43.05 25.25 42.9 L25.4 42.8 25.8 42.35 25.8 41.85 25.8 41.45 27.0 40.9 28.15 40.55 28.3 40.6 Q28.3 41.3 28.7 41.5 L29.75 41.65 29.75 41.35 Q29.9 40.05 30.85 40.25 L30.9 40.65 Q31.0 41.15 31.05 41.65 L30.9 42.15 30.8 42.7 Q31.0 43.0 31.9 43.25 L32.0 43.25 33.4 43.45 33.75 43.45 Q34.25 43.2 34.7 43.0 L34.7 43.0 Q35.05 42.6 35.2 41.7 L35.2 41.7 Q35.1 41.05 35.05 40.45 L34.65 39.45 34.6 39.2 Q35.0 39.1 36.15 39.7 L36.45 39.9 Q37.35 40.45 37.45 39.15 L37.9 39.1 Q38.95 39.1 38.9 39.9 39.25 39.95 39.6 40.0 40.1 40.05 40.6 40.1 L40.6 40.15 40.5 40.95 40.35 41.3 40.35 41.8 41.55 42.0 Q42.2 41.95 42.85 41.95 43.55 41.75 43.7 41.2 L43.75 40.9 44.5 41.55 44.8 41.55 Q45.55 41.4 45.5 40.55 L45.2 40.05 45.1 39.95 Q44.7 39.6 44.9 39.15 45.1 38.7 45.85 38.7 L46.15 38.7 46.15 39.4 47.35 39.45 47.95 39.1 48.25 38.8 48.4 38.45 48.75 38.05 Q49.05 37.95 49.95 38.4 L50.65 38.75 50.8 38.85 51.75 38.7 52.9 38.35 54.05 38.4 54.15 38.4 54.85 39.05 55.35 39.7 55.45 39.8 Q55.9 40.0 56.3 40.15 L57.85 39.9 Q58.25 39.75 58.7 38.75 L59.35 37.65 59.45 37.5 Q60.4 36.9 62.15 36.7 62.5 36.2 61.9 36.0 L59.9 35.8 Q59.6 35.8 59.1 36.15 58.65 36.5 58.45 36.5 58.2 36.5 57.8 36.2 L57.25 35.75 56.45 35.5 55.7 35.25 55.4 35.25 53.9 35.25 52.05 35.3 50.8 35.05 49.95 34.8 47.75 34.25 44.6 33.95 40.9 34.1 37.85 34.85 Q36.75 35.5 36.25 35.55 L35.45 35.35 34.65 35.15 30.75 34.95 Q29.4 35.05 28.5 35.45 27.9 35.7 27.05 36.3 L25.65 37.25 25.05 37.55 24.25 37.8 22.7 37.9 21.05 38.25 20.0 38.65 17.3 39.55 Q15.7 39.7 14.15 39.8 L14.05 39.8 Q12.3 40.15 11.35 41.15 L10.55 42.3 9.5 43.3 8.1 43.6 7.9 43.6 6.7 43.75 3.9 44.8 2.25 44.85 0.55 44.7;M-0.05 44.6 Q1.65 44.8 3.35 45.0 L5.35 45.2 6.2 45.15 7.15 45.0 8.0 44.9 8.75 44.8 9.4 44.7 10.05 44.6 10.55 44.5 11.0 44.4 Q11.5 44.35 11.95 44.3 L12.7 44.2 13.45 44.1 13.9 44.0 14.65 43.9 15.05 43.9 15.35 43.95 15.7 44.0 16.7 44.25 16.9 44.25 Q17.35 44.35 17.8 44.4 L18.65 44.4 18.75 44.4 Q19.15 44.2 19.5 44.0 L20.3 43.55 20.3 43.55 21.25 43.1 21.8 43.1 22.0 43.2 Q22.35 43.5 22.75 43.6 L22.85 43.6 23.6 43.7 24.2 43.8 Q24.65 43.85 25.35 43.4 L25.45 43.3 25.95 42.85 26.5 42.4 26.7 42.5 27.8 42.4 28.75 42.2 28.9 42.2 Q29.35 42.1 29.8 42.0 L30.95 41.65 31.2 41.55 Q31.9 41.1 32.55 40.65 L32.65 40.55 Q33.15 40.2 33.55 40.0 L33.9 39.9 34.45 39.95 Q34.95 40.05 35.45 40.15 L35.75 40.25 36.8 40.3 37.0 40.25 Q37.7 40.0 37.65 39.45 L37.65 39.45 Q37.45 38.85 37.3 38.25 L37.3 38.15 Q37.8 38.0 38.55 38.15 L39.45 38.4 39.65 38.45 Q40.45 38.6 41.25 38.75 L41.55 38.7 Q42.25 38.55 42.95 38.45 L43.35 38.4 Q44.0 38.35 44.6 38.3 45.1 38.35 45.2 38.6 45.85 38.75 46.15 38.4 L46.15 38.4 46.4 37.65 46.5 37.4 46.85 37.3 47.75 37.6 Q48.85 38.1 48.8 38.25 49.4 38.35 49.85 37.6 L50.0 37.35 50.5 36.6 50.75 36.6 Q51.25 36.75 51.7 36.85 L52.1 36.95 52.2 36.95 Q52.7 37.05 53.15 37.15 53.65 37.15 54.1 37.15 L54.35 37.1 55.05 37.0 56.05 36.95 56.7 36.95 57.1 36.95 57.35 36.95 57.75 36.95 Q58.25 37.0 58.75 37.0 L59.35 37.0 59.65 37.0 60.35 37.1 61.4 37.1 62.2 37.2 62.2 37.2 62.95 37.2 63.55 37.0 63.65 36.95 Q63.8 36.75 63.05 36.5 L61.6 36.2 Q61.0 36.1 60.45 36.0 L59.5 35.9 59.3 35.9 Q58.0 35.65 56.7 35.45 56.25 35.4 55.85 35.35 L54.1 35.1 Q53.6 35.05 53.1 35.0 52.95 34.95 52.8 34.95 52.4 34.9 52.0 34.85 L51.4 34.8 50.7 34.75 49.85 34.7 49.55 34.7 48.25 34.7 46.75 34.9 45.6 35.3 45.15 35.5 43.25 35.8 40.45 36.15 37.25 36.6 34.45 37.2 Q33.7 37.45 32.95 37.7 L32.2 38.0 31.5 38.25 28.15 39.25 Q27.2 39.5 26.3 39.7 25.6 39.9 24.9 40.05 L23.35 40.35 22.8 40.45 22.2 40.5 20.85 40.6 19.3 40.8 18.25 41.0 15.8 41.7 Q14.45 42.15 13.2 42.75 L13.1 42.75 Q11.85 43.0 10.65 43.25 L9.3 43.45 8.25 43.65 6.85 43.85 6.65 43.85 5.55 44.0 3.25 44.3 1.75 44.45 -0.05 44.6"/>
    </path>
    <path d="M0.55 44.7 L2.25 44.85 3.9 44.8 6.7 43.75 7.9 43.6 8.1 43.6 9.5 43.3 10.55 42.3 11.35 41.15 Q12.3 40.15 14.05 39.8 L14.15 39.8 Q15.7 39.7 17.3 39.55 L20.0 38.65 21.05 38.25 22.7 37.9 24.25 37.8 25.05 37.55 25.65 37.25 27.05 36.3 Q27.9 35.7 28.5 35.45 29.4 35.05 30.75 34.95 L34.65 35.15 35.45 35.35 36.25 35.55 Q36.75 35.5 37.85 34.85 L40.9 34.1 44.6 33.95 47.75 34.25 49.95 34.8 50.8 35.05 52.05 35.3 53.9 35.25 55.4 35.25 55.7 35.25 56.45 35.5 57.25 35.75 57.8 36.2 Q58.2 36.5 58.45 36.5 58.65 36.5 59.1 36.15 59.6 35.8 59.9 35.8 L61.9 36.0 Q62.5 36.2 62.15 36.7 60.4 36.9 59.45 37.5 L59.35 37.65 58.7 38.75 Q58.25 39.75 57.85 39.9 L56.3 40.15 Q55.9 40.0 55.45 39.8 L55.35 39.7 54.85 39.05 54.15 38.4 54.05 38.4 52.9 38.35 51.75 38.7 50.8 38.85 50.65 38.75 49.95 38.4 Q49.05 37.95 48.75 38.05 L48.4 38.45 48.25 38.8 47.95 39.1 47.35 39.45 46.15 39.4 46.15 38.7 45.85 38.7 Q45.1 38.7 44.9 39.15 44.7 39.6 45.1 39.95 L45.2 40.05 45.5 40.55 Q45.55 41.4 44.8 41.55 L44.5 41.55 43.75 40.9 43.7 41.2 Q43.55 41.75 42.85 41.95 42.2 41.95 41.55 42.0 L40.35 41.8 40.35 41.3 40.5 40.95 40.6 40.15 40.6 40.1 Q40.1 40.05 39.6 40.0 39.25 39.95 38.9 39.9 38.95 39.1 37.9 39.1 L37.45 39.15 Q37.35 40.45 36.45 39.9 L36.15 39.7 Q35.0 39.1 34.6 39.2 L34.65 39.45 35.05 40.45 Q35.1 41.05 35.2 41.7 L35.2 41.7 Q35.05 42.6 34.7 43.0 L34.7 43.0 Q34.25 43.2 33.75 43.45 L33.4 43.45 32.0 43.25 31.9 43.25 Q31.0 43.0 30.8 42.7 L30.9 42.15 31.05 41.65 Q31.0 41.15 30.9 40.65 L30.85 40.25 Q29.9 40.05 29.75 41.35 L29.75 41.65 28.7 41.5 Q28.3 41.3 28.3 40.6 L28.15 40.55 27.0 40.9 25.8 41.45 25.8 41.85 25.8 42.35 25.4 42.8 25.25 42.9 Q24.7 43.05 24.15 43.25 L23.35 43.25 23.1 42.4 23.1 42.3 Q22.7 42.65 22.25 43.05 L22.15 43.15 21.55 43.75 20.5 44.1 20.4 44.1 19.5 44.3 Q18.95 44.2 18.75 43.7 L18.7 43.55 18.25 42.5 Q17.9 42.2 17.4 42.35 L17.2 42.4 16.15 42.8 16.05 43.25 15.65 43.25 15.2 43.35 14.35 43.4 14.25 42.9 13.75 43.75 13.15 44.6 Q12.65 45.05 12.2 44.95 L11.85 44.9 11.25 44.95 10.65 45.5 10.0 45.95 9.05 45.95 8.1 45.8 7.2 45.75 6.3 45.8 4.2 46.0 Q3.0 46.05 0.55 44.7" fill="none" stroke="#000000" stroke-linecap="round" stroke-linejoin="round" stroke-opacity="0.0" stroke-width="1.0">
      <animate attributeName="stroke" dur="2s" repeatCount="indefinite" values="#000000;#000001"/>
      <animate attributeName="stroke-width" dur="2s" repeatCount="indefinite" values="0.0;0.0"/>
      <animate attributeName="fill-opacity" dur="2s" repeatCount="indefinite" values="0.0;0.0"/>
      <animate attributeName="d" dur="2s" repeatCount="indefinite" values="M0.55 44.7 L2.25 44.85 3.9 44.8 6.7 43.75 7.9 43.6 8.1 43.6 9.5 43.3 10.55 42.3 11.35 41.15 Q12.3 40.15 14.05 39.8 L14.15 39.8 Q15.7 39.7 17.3 39.55 L20.0 38.65 21.05 38.25 22.7 37.9 24.25 37.8 25.05 37.55 25.65 37.25 27.05 36.3 Q27.9 35.7 28.5 35.45 29.4 35.05 30.75 34.95 L34.65 35.15 35.45 35.35 36.25 35.55 Q36.75 35.5 37.85 34.85 L40.9 34.1 44.6 33.95 47.75 34.25 49.95 34.8 50.8 35.05 52.05 35.3 53.9 35.25 55.4 35.25 55.7 35.25 56.45 35.5 57.25 35.75 57.8 36.2 Q58.2 36.5 58.45 36.5 58.65 36.5 59.1 36.15 59.6 35.8 59.9 35.8 L61.9 36.0 Q62.5 36.2 62.15 36.7 60.4 36.9 59.45 37.5 L59.35 37.65 58.7 38.75 Q58.25 39.75 57.85 39.9 L56.3 40.15 Q55.9 40.0 55.45 39.8 L55.35 39.7 54.85 39.05 54.15 38.4 54.05 38.4 52.9 38.35 51.75 38.7 50.8 38.85 50.65 38.75 49.95 38.4 Q49.05 37.95 48.75 38.05 L48.4 38.45 48.25 38.8 47.95 39.1 47.35 39.45 46.15 39.4 46.15 38.7 45.85 38.7 Q45.1 38.7 44.9 39.15 44.7 39.6 45.1 39.95 L45.2 40.05 45.5 40.55 Q45.55 41.4 44.8 41.55 L44.5 41.55 43.75 40.9 43.7 41.2 Q43.55 41.75 42.85 41.95 42.2 41.95 41.55 42.0 L40.35 41.8 40.35 41.3 40.5 40.95 40.6 40.15 40.6 40.1 Q40.1 40.05 39.6 40.0 39.25 39.95 38.9 39.9 38.95 39.1 37.9 39.1 L37.45 39.15 Q37.35 40.45 36.45 39.9 L36.15 39.7 Q35.0 39.1 34.6 39.2 L34.65 39.45 35.05 40.45 Q35.1 41.05 35.2 41.7 L35.2 41.7 Q35.05 42.6 34.7 43.0 L34.7 43.0 Q34.25 43.2 33.75 43.45 L33.4 43.45 32.0 43.25 31.9 43.25 Q31.0 43.0 30.8 42.7 L30.9 42.15 31.05 41.65 Q31.0 41.15 30.9 40.65 L30.85 40.25 Q29.9 40.05 29.75 41.35 L29.75 41.65 28.7 41.5 Q28.3 41.3 28.3 40.6 L28.15 40.55 27.0 40.9 25.8 41.45 25.8 41.85 25.8 42.35 25.4 42.8 25.25 42.9 Q24.7 43.05 24.15 43.25 L23.35 43.25 23.1 42.4 23.1 42.3 Q22.7 42.65 22.25 43.05 L22.15 43.15 21.55 43.75 20.5 44.1 20.4 44.1 19.5 44.3 Q18.95 44.2 18.75 43.7 L18.7 43.55 18.25 42.5 Q17.9 42.2 17.4 42.35 L17.2 42.4 16.15 42.8 16.05 43.25 15.65 43.25 15.2 43.35 14.35 43.4 14.25 42.9 13.75 43.75 13.15 44.6 Q12.65 45.05 12.2 44.95 L11.85 44.9 11.25 44.95 10.65 45.5 10.0 45.95 9.05 45.95 8.1 45.8 7.2 45.75 6.3 45.8 4.2 46.0 Q3.0 46.05 0.55 44.7;M-0.05 44.6 L1.75 44.45 3.25 44.3 5.55 44.0 6.65 43.85 6.85 43.85 8.25 43.65 9.3 43.45 10.65 43.25 Q11.85 43.0 13.1 42.75 L13.2 42.75 Q14.45 42.15 15.8 41.7 L18.25 41.0 19.3 40.8 20.85 40.6 22.2 40.5 22.8 40.45 23.35 40.35 24.9 40.05 Q25.6 39.9 26.3 39.7 27.2 39.5 28.15 39.25 L31.5 38.25 32.2 38.0 32.95 37.7 Q33.7 37.45 34.45 37.2 L37.25 36.6 40.45 36.15 43.25 35.8 45.15 35.5 45.6 35.3 46.75 34.9 48.25 34.7 49.55 34.7 49.85 34.7 50.7 34.75 51.4 34.8 52.0 34.85 Q52.4 34.9 52.8 34.95 52.95 34.95 53.1 35.0 53.6 35.05 54.1 35.1 L55.85 35.35 Q56.25 35.4 56.7 35.45 58.0 35.65 59.3 35.9 L59.5 35.9 60.45 36.0 Q61.0 36.1 61.6 36.2 L63.05 36.5 Q63.8 36.75 63.65 36.95 L63.55 37.0 62.95 37.2 62.2 37.2 62.2 37.2 61.4 37.1 60.35 37.1 59.65 37.0 59.35 37.0 58.75 37.0 Q58.25 37.0 57.75 36.95 L57.35 36.95 57.1 36.95 56.7 36.95 56.05 36.95 55.05 37.0 54.35 37.1 54.1 37.15 Q53.65 37.15 53.15 37.15 52.7 37.05 52.2 36.95 L52.1 36.95 51.7 36.85 Q51.25 36.75 50.75 36.6 L50.5 36.6 50.0 37.35 49.85 37.6 Q49.4 38.35 48.8 38.25 48.85 38.1 47.75 37.6 L46.85 37.3 46.5 37.4 46.4 37.65 46.15 38.4 46.15 38.4 Q45.85 38.75 45.2 38.6 45.1 38.35 44.6 38.3 44.0 38.35 43.35 38.4 L42.95 38.45 Q42.25 38.55 41.55 38.7 L41.25 38.75 Q40.45 38.6 39.65 38.45 L39.45 38.4 38.55 38.15 Q37.8 38.0 37.3 38.15 L37.3 38.25 Q37.45 38.85 37.65 39.45 L37.65 39.45 Q37.7 40.0 37.0 40.25 L36.8 40.3 35.75 40.25 35.45 40.15 Q34.95 40.05 34.45 39.95 L33.9 39.9 33.55 40.0 Q33.15 40.2 32.65 40.55 L32.55 40.65 Q31.9 41.1 31.2 41.55 L30.95 41.65 29.8 42.0 Q29.35 42.1 28.9 42.2 L28.75 42.2 27.8 42.4 26.7 42.5 26.5 42.4 25.95 42.85 25.45 43.3 25.35 43.4 Q24.65 43.85 24.2 43.8 L23.6 43.7 22.85 43.6 22.75 43.6 Q22.35 43.5 22.0 43.2 L21.8 43.1 21.25 43.1 20.3 43.55 20.3 43.55 19.5 44.0 Q19.15 44.2 18.75 44.4 L18.65 44.4 17.8 44.4 Q17.35 44.35 16.9 44.25 L16.7 44.25 15.7 44.0 15.35 43.95 15.05 43.9 14.65 43.9 13.9 44.0 13.45 44.1 12.7 44.2 11.95 44.3 Q11.5 44.35 11.0 44.4 L10.55 44.5 10.05 44.6 9.4 44.7 8.75 44.8 8.0 44.9 7.15 45.0 6.2 45.15 5.35 45.2 3.35 45.0 Q1.65 44.8 -0.05 44.6"/>
    </path>
  </g>
</svg>
