<?xml version="1.0" encoding="UTF-8" standalone="no"?>
<svg xmlns:xlink="http://www.w3.org/1999/xlink" height="53.65px" width="58.8px" xmlns="http://www.w3.org/2000/svg">
  <g transform="matrix(1.0, 0.0, 0.0, 1.0, 13.0, -15.9)">
    <path d="M34.6 15.9 L34.6 16.85 34.7 17.75 35.7 17.75 36.5 17.7 36.5 16.8 Q36.5 16.35 35.6 15.9 L34.6 15.9 M33.25 59.85 L33.25 59.85 33.25 60.9 33.25 62.0 33.35 62.0 34.45 62.0 35.45 61.9 Q35.45 61.4 34.35 59.85 L33.25 59.85 M31.65 44.35 L31.65 44.35 31.65 45.85 31.7 47.4 33.3 47.4 34.7 47.4 34.7 45.9 34.7 44.35 33.15 44.35 31.65 44.35 M26.8 34.5 L26.8 35.8 26.8 36.85 27.2 36.85 28.5 36.85 29.5 36.7 29.5 35.5 29.5 34.5 28.1 34.5 26.8 34.5 M22.45 18.25 L22.45 19.95 22.45 21.5 22.75 21.5 24.45 21.5 25.75 21.5 25.75 21.3 25.75 19.8 25.75 18.25 24.05 18.25 22.45 18.25 M18.7 52.8 L18.7 52.9 18.7 53.8 Q18.7 54.15 19.05 54.5 L20.05 54.5 20.75 54.4 20.75 53.5 20.75 52.8 19.6 52.8 18.7 52.8 M16.05 34.9 L16.05 34.9 16.05 36.6 16.05 37.9 16.45 37.9 18.25 37.9 19.65 37.9 19.65 37.7 19.65 36.2 19.65 34.9 17.65 34.9 16.05 34.9 M14.1 27.3 L14.1 27.3 14.1 28.65 Q14.1 29.2 14.4 29.75 L15.9 29.75 17.05 29.65 17.05 28.35 17.05 27.3 15.45 27.3 14.1 27.3 M5.75 41.9 L5.75 44.0 Q5.75 44.8 6.35 45.55 L8.65 45.55 10.35 45.35 10.35 43.35 Q10.35 42.65 9.85 41.9 L7.75 41.9 5.75 41.9 M3.55 20.65 L3.55 21.7 Q3.55 22.1 3.85 22.5 L4.95 22.5 5.85 22.4 5.85 21.5 5.85 20.65 4.65 20.65 3.55 20.65 M0.95 56.7 L0.95 57.9 0.95 58.8 1.25 58.8 2.45 58.8 3.4 58.7 3.4 57.6 3.4 56.7 2.1 56.7 0.95 56.7 M-9.75 35.5 L-9.75 35.5 -9.75 37.1 -9.75 38.6 -9.45 38.6 -7.75 38.6 -6.25 38.6 -6.25 38.6 -6.25 37.0 -6.25 35.5 -6.35 35.5 -8.05 35.5 -9.75 35.5" fill="#ffffff" fill-rule="evenodd" stroke="none">
      <animate attributeName="fill" dur="2s" repeatCount="indefinite" values="#ffffff;#ffffff"/>
      <animate attributeName="fill-opacity" dur="2s" repeatCount="indefinite" values="1.0;1.0"/>
      <animate attributeName="d" dur="2s" repeatCount="indefinite" values="M34.6 15.9 L34.6 16.85 34.7 17.75 35.7 17.75 36.5 17.7 36.5 16.8 Q36.5 16.35 35.6 15.9 L34.6 15.9 M33.25 59.85 L33.25 59.85 33.25 60.9 33.25 62.0 33.35 62.0 34.45 62.0 35.45 61.9 Q35.45 61.4 34.35 59.85 L33.25 59.85 M31.65 44.35 L31.65 44.35 31.65 45.85 31.7 47.4 33.3 47.4 34.7 47.4 34.7 45.9 34.7 44.35 33.15 44.35 31.65 44.35 M26.8 34.5 L26.8 35.8 26.8 36.85 27.2 36.85 28.5 36.85 29.5 36.7 29.5 35.5 29.5 34.5 28.1 34.5 26.8 34.5 M22.45 18.25 L22.45 19.95 22.45 21.5 22.75 21.5 24.45 21.5 25.75 21.5 25.75 21.3 25.75 19.8 25.75 18.25 24.05 18.25 22.45 18.25 M18.7 52.8 L18.7 52.9 18.7 53.8 Q18.7 54.15 19.05 54.5 L20.05 54.5 20.75 54.4 20.75 53.5 20.75 52.8 19.6 52.8 18.7 52.8 M16.05 34.9 L16.05 34.9 16.05 36.6 16.05 37.9 16.45 37.9 18.25 37.9 19.65 37.9 19.65 37.7 19.65 36.2 19.65 34.9 17.65 34.9 16.05 34.9 M14.1 27.3 L14.1 27.3 14.1 28.65 Q14.1 29.2 14.4 29.75 L15.9 29.75 17.05 29.65 17.05 28.35 17.05 27.3 15.45 27.3 14.1 27.3 M5.75 41.9 L5.75 44.0 Q5.75 44.8 6.35 45.55 L8.65 45.55 10.35 45.35 10.35 43.35 Q10.35 42.65 9.85 41.9 L7.75 41.9 5.75 41.9 M3.55 20.65 L3.55 21.7 Q3.55 22.1 3.85 22.5 L4.95 22.5 5.85 22.4 5.85 21.5 5.85 20.65 4.65 20.65 3.55 20.65 M0.95 56.7 L0.95 57.9 0.95 58.8 1.25 58.8 2.45 58.8 3.4 58.7 3.4 57.6 3.4 56.7 2.1 56.7 0.95 56.7 M-9.75 35.5 L-9.75 35.5 -9.75 37.1 -9.75 38.6 -9.45 38.6 -7.75 38.6 -6.25 38.6 -6.25 38.6 -6.25 37.0 -6.25 35.5 -6.35 35.5 -8.05 35.5 -9.75 35.5;M40.15 32.55 L42.75 32.95 42.95 35.65 43.45 32.95 45.8 32.75 43.45 32.35 Q43.3 31.1 42.7 32.35 L40.15 32.55 M35.75 66.65 L35.85 66.65 38.15 67.05 38.3 69.45 38.3 69.55 38.75 67.05 41.0 66.8 Q39.55 66.6 38.1 66.45 L35.75 66.65 M31.8 51.5 L31.95 51.5 35.05 52.05 35.25 55.4 35.9 52.05 38.8 51.7 35.95 51.25 35.55 48.1 34.95 51.25 31.8 51.5 M26.25 41.35 L28.65 41.75 28.8 43.65 28.8 44.25 29.25 41.75 31.5 41.5 29.3 41.15 29.1 39.25 28.6 41.15 26.25 41.35 M20.25 24.9 L23.45 25.4 23.65 28.35 23.65 28.75 24.25 25.4 26.9 25.1 27.2 25.1 24.3 24.65 23.95 21.65 23.35 24.65 20.25 24.9 M18.0 61.8 L18.0 61.8 19.85 62.1 Q19.95 63.1 20.0 64.05 L20.35 62.1 22.05 61.9 20.35 61.65 20.15 60.25 19.8 61.65 18.0 61.8 M15.35 41.1 L15.45 41.1 18.45 41.65 18.65 44.15 18.65 44.85 19.25 41.65 21.9 41.35 22.1 41.35 19.3 40.9 19.05 38.5 18.35 40.9 15.35 41.1 M10.1 33.75 L10.2 33.75 12.5 34.15 Q12.6 35.4 12.7 36.65 L13.15 34.15 15.35 33.9 13.15 33.55 12.95 31.65 12.45 33.55 10.1 33.75 M3.05 50.75 L6.35 51.3 Q6.5 53.05 6.6 54.8 L7.2 51.3 10.3 51.0 7.25 50.5 Q7.05 48.9 6.9 47.3 L6.25 50.5 3.05 50.75 M1.8 32.45 L3.75 32.75 Q3.8 33.75 3.85 34.75 L4.25 32.75 6.0 32.55 4.25 32.3 4.05 30.7 3.7 32.3 1.8 32.45 M-0.4 65.4 L2.25 65.85 2.35 67.9 2.45 68.6 2.95 65.85 5.4 65.6 3.0 65.2 2.7 63.0 2.2 65.2 -0.4 65.4 M-13.0 46.8 L-12.95 46.8 -9.75 47.4 -9.55 50.2 -9.5 50.8 -8.85 47.4 -6.05 47.05 -5.85 47.05 -8.85 46.6 -9.15 43.8 -9.2 43.4 -9.8 46.6 -13.0 46.8"/>
    </path>
    <path d="M-9.75 35.5 L-8.05 35.5 -6.35 35.5 -6.25 35.5 -6.25 37.0 -6.25 38.6 -6.25 38.6 -7.75 38.6 -9.45 38.6 -9.75 38.6 -9.75 37.1 -9.75 35.5 -9.75 35.5 M0.95 56.7 L2.1 56.7 3.4 56.7 3.4 57.6 3.4 58.7 2.45 58.8 1.25 58.8 0.95 58.8 0.95 57.9 0.95 56.7 M3.55 20.65 L4.65 20.65 5.85 20.65 5.85 21.5 5.85 22.4 4.95 22.5 3.85 22.5 Q3.55 22.1 3.55 21.7 L3.55 20.65 M5.75 41.9 L7.75 41.9 9.85 41.9 Q10.35 42.65 10.35 43.35 L10.35 45.35 8.65 45.55 6.35 45.55 Q5.75 44.8 5.75 44.0 L5.75 41.9 M14.1 27.3 L15.45 27.3 17.05 27.3 17.05 28.35 17.05 29.65 15.9 29.75 14.4 29.75 Q14.1 29.2 14.1 28.65 L14.1 27.3 14.1 27.3 M16.05 34.9 L17.65 34.9 19.65 34.9 19.65 36.2 19.65 37.7 19.65 37.9 18.25 37.9 16.45 37.9 16.05 37.9 16.05 36.6 16.05 34.9 16.05 34.9 M18.7 52.8 L19.6 52.8 20.75 52.8 20.75 53.5 20.75 54.4 20.05 54.5 19.05 54.5 Q18.7 54.15 18.7 53.8 L18.7 52.9 18.7 52.8 M22.45 18.25 L24.05 18.25 25.75 18.25 25.75 19.8 25.75 21.3 25.75 21.5 24.45 21.5 22.75 21.5 22.45 21.5 22.45 19.95 22.45 18.25 M26.8 34.5 L28.1 34.5 29.5 34.5 29.5 35.5 29.5 36.7 28.5 36.85 27.2 36.85 26.8 36.85 26.8 35.8 26.8 34.5 M31.65 44.35 L33.15 44.35 34.7 44.35 34.7 45.9 34.7 47.4 33.3 47.4 31.7 47.4 31.65 45.85 31.65 44.35 31.65 44.35 M33.25 59.85 L34.35 59.85 Q35.45 61.4 35.45 61.9 L34.45 62.0 33.35 62.0 33.25 62.0 33.25 60.9 33.25 59.85 33.25 59.85 M34.6 15.9 L35.6 15.9 Q36.5 16.35 36.5 16.8 L36.5 17.7 35.7 17.75 34.7 17.75 34.6 16.85 34.6 15.9" fill="none" stroke="#000000" stroke-linecap="round" stroke-linejoin="round" stroke-opacity="0.0" stroke-width="1.0">
      <animate attributeName="stroke" dur="2s" repeatCount="indefinite" values="#000000;#000001"/>
      <animate attributeName="stroke-width" dur="2s" repeatCount="indefinite" values="0.0;0.0"/>
      <animate attributeName="fill-opacity" dur="2s" repeatCount="indefinite" values="0.0;0.0"/>
      <animate attributeName="d" dur="2s" repeatCount="indefinite" values="M-9.75 35.5 L-8.05 35.5 -6.35 35.5 -6.25 35.5 -6.25 37.0 -6.25 38.6 -6.25 38.6 -7.75 38.6 -9.45 38.6 -9.75 38.6 -9.75 37.1 -9.75 35.5 -9.75 35.5 M0.95 56.7 L2.1 56.7 3.4 56.7 3.4 57.6 3.4 58.7 2.45 58.8 1.25 58.8 0.95 58.8 0.95 57.9 0.95 56.7 M3.55 20.65 L4.65 20.65 5.85 20.65 5.85 21.5 5.85 22.4 4.95 22.5 3.85 22.5 Q3.55 22.1 3.55 21.7 L3.55 20.65 M5.75 41.9 L7.75 41.9 9.85 41.9 Q10.35 42.65 10.35 43.35 L10.35 45.35 8.65 45.55 6.35 45.55 Q5.75 44.8 5.75 44.0 L5.75 41.9 M14.1 27.3 L15.45 27.3 17.05 27.3 17.05 28.35 17.05 29.65 15.9 29.75 14.4 29.75 Q14.1 29.2 14.1 28.65 L14.1 27.3 14.1 27.3 M16.05 34.9 L17.65 34.9 19.65 34.9 19.65 36.2 19.65 37.7 19.65 37.9 18.25 37.9 16.45 37.9 16.05 37.9 16.05 36.6 16.05 34.9 16.05 34.9 M18.7 52.8 L19.6 52.8 20.75 52.8 20.75 53.5 20.75 54.4 20.05 54.5 19.05 54.5 Q18.7 54.15 18.7 53.8 L18.7 52.9 18.7 52.8 M22.45 18.25 L24.05 18.25 25.75 18.25 25.75 19.8 25.75 21.3 25.75 21.5 24.45 21.5 22.75 21.5 22.45 21.5 22.45 19.95 22.45 18.25 M26.8 34.5 L28.1 34.5 29.5 34.5 29.5 35.5 29.5 36.7 28.5 36.85 27.2 36.85 26.8 36.85 26.8 35.8 26.8 34.5 M31.65 44.35 L33.15 44.35 34.7 44.35 34.7 45.9 34.7 47.4 33.3 47.4 31.7 47.4 31.65 45.85 31.65 44.35 31.65 44.35 M33.25 59.85 L34.35 59.85 Q35.45 61.4 35.45 61.9 L34.45 62.0 33.35 62.0 33.25 62.0 33.25 60.9 33.25 59.85 33.25 59.85 M34.6 15.9 L35.6 15.9 Q36.5 16.35 36.5 16.8 L36.5 17.7 35.7 17.75 34.7 17.75 34.6 16.85 34.6 15.9;M-13.0 46.8 L-9.8 46.6 -9.2 43.4 -9.15 43.8 -8.85 46.6 -5.85 47.05 -6.05 47.05 -8.85 47.4 -9.5 50.8 -9.55 50.2 -9.75 47.4 -12.95 46.8 -13.0 46.8 M-0.4 65.4 L2.2 65.2 2.7 63.0 3.0 65.2 5.4 65.6 2.95 65.85 2.45 68.6 2.35 67.9 2.25 65.85 -0.4 65.4 M1.8 32.45 L3.7 32.3 4.05 30.7 4.25 32.3 6.0 32.55 4.25 32.75 3.85 34.75 Q3.8 33.75 3.75 32.75 L1.8 32.45 M3.05 50.75 L6.25 50.5 6.9 47.3 Q7.05 48.9 7.25 50.5 L10.3 51.0 7.2 51.3 6.6 54.8 Q6.5 53.05 6.35 51.3 L3.05 50.75 M10.1 33.75 L12.45 33.55 12.95 31.65 13.15 33.55 15.35 33.9 13.15 34.15 12.7 36.65 Q12.6 35.4 12.5 34.15 L10.2 33.75 10.1 33.75 M15.35 41.1 L18.35 40.9 19.05 38.5 19.3 40.9 22.1 41.35 21.9 41.35 19.25 41.65 18.65 44.85 18.65 44.15 18.45 41.65 15.45 41.1 15.35 41.1 M18.0 61.8 L19.8 61.65 20.15 60.25 20.35 61.65 22.05 61.9 20.35 62.1 20.0 64.05 Q19.95 63.1 19.85 62.1 L18.0 61.8 18.0 61.8 M20.25 24.9 L23.35 24.65 23.95 21.65 24.3 24.65 27.2 25.1 26.9 25.1 24.25 25.4 23.65 28.75 23.65 28.35 23.45 25.4 20.25 24.9 M26.25 41.35 L28.6 41.15 29.1 39.25 29.3 41.15 31.5 41.5 29.25 41.75 28.8 44.25 28.8 43.65 28.65 41.75 26.25 41.35 M31.8 51.5 L34.95 51.25 35.55 48.1 35.95 51.25 38.8 51.7 35.9 52.05 35.25 55.4 35.05 52.05 31.95 51.5 31.8 51.5 M35.75 66.65 L38.1 66.45 Q39.55 66.6 41.0 66.8 L38.75 67.05 38.3 69.55 38.3 69.45 38.15 67.05 35.85 66.65 35.75 66.65 M40.15 32.55 L42.7 32.35 Q43.3 31.1 43.45 32.35 L45.8 32.75 43.45 32.95 42.95 35.65 42.75 32.95 40.15 32.55"/>
    </path>
  </g>
</svg>
