<?xml version="1.0" encoding="UTF-8" standalone="no"?>
<svg xmlns:xlink="http://www.w3.org/1999/xlink" height="88.0px" width="88.0px" xmlns="http://www.w3.org/2000/svg">
  <g transform="matrix(1.0, 0.0, 0.0, 1.0, 43.1, 46.0)">
    <path d="M-43.1 -2.0 L-43.1 -1.8 Q-43.05 10.15 -37.45 19.8 -34.6 24.75 -30.25 29.1 L-30.15 29.2 Q-25.35 33.95 -19.75 37.0 -12.9 40.7 -4.9 41.65 L0.9 42.0 1.3 42.0 9.9 41.15 Q13.3 40.2 16.65 39.25 25.1 36.0 32.0 29.1 L32.1 29.0 Q36.35 24.7 39.25 19.8 44.9 10.1 44.9 -2.0 44.9 -20.25 32.0 -33.15 19.15 -46.0 0.9 -46.0 -17.35 -46.0 -30.25 -33.15 -43.1 -20.25 -43.1 -2.0" fill="url(#gradient0)" fill-rule="evenodd" stroke="none">
      <animate attributeName="d" dur="2s" repeatCount="indefinite" values="M-43.1 -2.0 L-43.1 -1.8 Q-43.05 10.15 -37.45 19.8 -34.6 24.75 -30.25 29.1 L-30.15 29.2 Q-25.35 33.95 -19.75 37.0 -12.9 40.7 -4.9 41.65 L0.9 42.0 1.3 42.0 9.9 41.15 Q13.3 40.2 16.65 39.25 25.1 36.0 32.0 29.1 L32.1 29.0 Q36.35 24.7 39.25 19.8 44.9 10.1 44.9 -2.0 44.9 -20.25 32.0 -33.15 19.15 -46.0 0.9 -46.0 -17.35 -46.0 -30.25 -33.15 -43.1 -20.25 -43.1 -2.0;M-43.1 -2.0 L-43.1 -2.0 Q-43.1 10.15 -37.45 19.9 -34.6 24.75 -30.35 29.0 L-30.25 29.1 Q-25.5 33.85 -20.0 36.9 -13.2 40.6 -5.35 41.65 L0.5 42.0 0.9 42.0 9.7 41.2 Q13.2 40.5 16.5 39.3 25.0 36.1 31.9 29.2 L32.0 29.1 Q36.4 24.7 39.3 19.7 44.9 10.0 44.9 -2.0 44.9 -20.25 32.0 -33.15 19.15 -46.0 0.9 -46.0 -17.35 -46.0 -30.25 -33.15 -43.1 -20.25 -43.1 -2.0"/>
    </path>
    <path d="M-43.1 -2.0 Q-43.1 -20.25 -30.25 -33.15 -17.35 -46.0 0.9 -46.0 19.15 -46.0 32.0 -33.15 44.9 -20.25 44.9 -2.0 44.9 10.1 39.25 19.8 36.35 24.7 32.1 29.0 L32.0 29.1 Q25.1 36.0 16.65 39.25 13.3 40.2 9.9 41.15 L1.3 42.0 0.9 42.0 -4.9 41.65 Q-12.9 40.7 -19.75 37.0 -25.35 33.95 -30.15 29.2 L-30.25 29.1 Q-34.6 24.75 -37.45 19.8 -43.05 10.15 -43.1 -1.8 L-43.1 -2.0" fill="none" stroke="#000000" stroke-linecap="round" stroke-linejoin="round" stroke-opacity="0.0" stroke-width="1.0">
      <animate attributeName="stroke" dur="2s" repeatCount="indefinite" values="#000000;#000001"/>
      <animate attributeName="stroke-width" dur="2s" repeatCount="indefinite" values="0.0;0.0"/>
      <animate attributeName="fill-opacity" dur="2s" repeatCount="indefinite" values="0.0;0.0"/>
      <animate attributeName="d" dur="2s" repeatCount="indefinite" values="M-43.1 -2.0 Q-43.1 -20.25 -30.25 -33.15 -17.35 -46.0 0.9 -46.0 19.15 -46.0 32.0 -33.15 44.9 -20.25 44.9 -2.0 44.9 10.1 39.25 19.8 36.35 24.7 32.1 29.0 L32.0 29.1 Q25.1 36.0 16.65 39.25 13.3 40.2 9.9 41.15 L1.3 42.0 0.9 42.0 -4.9 41.65 Q-12.9 40.7 -19.75 37.0 -25.35 33.95 -30.15 29.2 L-30.25 29.1 Q-34.6 24.75 -37.45 19.8 -43.05 10.15 -43.1 -1.8 L-43.1 -2.0;M-43.1 -2.0 Q-43.1 -20.25 -30.25 -33.15 -17.35 -46.0 0.9 -46.0 19.15 -46.0 32.0 -33.15 44.9 -20.25 44.9 -2.0 44.9 10.0 39.3 19.7 36.4 24.7 32.0 29.1 L31.9 29.2 Q25.0 36.1 16.5 39.3 13.2 40.5 9.7 41.2 L0.9 42.0 0.5 42.0 -5.35 41.65 Q-13.2 40.6 -20.0 36.9 -25.5 33.85 -30.25 29.1 L-30.35 29.0 Q-34.6 24.75 -37.45 19.9 -43.1 10.15 -43.1 -2.0 L-43.1 -2.0"/>
    </path>
  </g>
  <defs>
    <radialGradient cx="0" cy="0" gradientTransform="matrix(0.0547, 0.0, 0.0, 0.0547, 0.9, -2.0)" gradientUnits="userSpaceOnUse" id="gradient0" r="819.2" spreadMethod="pad">
      <animateTransform additive="replace" attributeName="gradientTransform" dur="2s" from="1" repeatCount="indefinite" to="1" type="scale"/>
      <animateTransform additive="sum" attributeName="gradientTransform" dur="2s" from="0.9 -2.0" repeatCount="indefinite" to="0.9 -2.0" type="translate"/>
      <animateTransform additive="sum" attributeName="gradientTransform" dur="2s" from="0.0" repeatCount="indefinite" to="0.0" type="rotate"/>
      <animateTransform additive="sum" attributeName="gradientTransform" dur="2s" from="0.0547 0.0547" repeatCount="indefinite" to="0.0547 0.0547" type="scale"/>
      <animateTransform additive="sum" attributeName="gradientTransform" dur="2s" from="0.0" repeatCount="indefinite" to="0.0" type="skewX"/>
      <stop offset="0.0" stop-color="#cc0000" stop-opacity="0.0">
        <animate attributeName="offset" dur="2s" repeatCount="indefinite" values="0.0;0.0"/>
        <animate attributeName="stop-color" dur="2s" repeatCount="indefinite" values="#cc0000;#ff0001"/>
        <animate attributeName="stop-opacity" dur="2s" repeatCount="indefinite" values="0.0;0.49803922"/>
      </stop>
      <stop offset="1.0" stop-color="#660000" stop-opacity="0.0">
        <animate attributeName="offset" dur="2s" repeatCount="indefinite" values="1.0;1.0"/>
        <animate attributeName="stop-color" dur="2s" repeatCount="indefinite" values="#660000;#804001"/>
        <animate attributeName="stop-opacity" dur="2s" repeatCount="indefinite" values="0.0;0.0"/>
      </stop>
    </radialGradient>
  </defs>
</svg>
